<svg xmlns="http://www.w3.org/2000/svg" viewBox="0 0 512 512"><path d="M256 31C131.9 31 31 131.9 31 256s100.9 225 225 225 225-100.9 225-225S380.1 31 256 31zm0 419.9c-20.1 0-39.5-3.1-57.7-8.7 7.9-12.9 19.9-34.2 24.2-51.1 2.4-9.1 12.1-46.3 12.1-46.3 6.3 12.1 25 22.4 44.6 22.4 58.8 0 101.2-54.1 101.2-121.3 0-64.4-52.6-112.6-120.1-112.6-84.1 0-128.8 56.5-128.8 118 0 28.6 15.2 64.2 39.5 75.5 3.7 1.8 5.6 1 6.5-2.6.6-2.7 4-15.9 5.5-22.1.4-1.9.3-3.7-1.3-5.6-8.1-9.8-14.5-27.8-14.5-44.5 0-43 32.5-84.6 88-84.6 47.9 0 81.4 32.6 81.4 79.3 0 52.7-26.6 89.3-61.3 89.3-19.2 0-33.5-15.8-28.8-35.2 5.5-23.2 16.2-48.2 16.2-64.9 0-14.9-8-27.4-24.7-27.4-19.6 0-35.2 20.2-35.2 47.4 0 17.2 5.8 28.9 5.8 28.9s-19.4 81.6-22.9 96.9c-4 16.9-2.4 40.5-.7 55.9C112.4 409.1 61 338.7 61 256c0-107.7 87.3-194.9 194.9-194.9s195 87.3 195 194.9S363.6 451 256 450.9z"/></svg>